<svg width="210" height="16" viewBox="0 0 210 16" fill="none" xmlns="http://www.w3.org/2000/svg">
    <path d="M0.939748 15.7746V12.6197H18.842C19.813 12.6197 20.4787 12.477 20.8389 12.1915C21.1992 11.8911 21.3793 11.4854 21.3793 10.9746C21.3793 10.4488 21.1992 10.0432 20.8389 9.75775C20.4943 9.45728 19.8287 9.30704 18.842 9.30704H6.24933C4.10357 9.30704 2.52166 8.88639 1.5036 8.04507C0.501199 7.20376 0 6.077 0 4.66479C0 3.25258 0.501199 2.12582 1.5036 1.28451C2.52166 0.428169 4.10357 0 6.24933 0H24.222V3.15493H6.31981C5.34873 3.15493 4.68308 3.30516 4.32284 3.60563C3.96261 3.89108 3.78249 4.2892 3.78249 4.8C3.78249 5.32582 3.95478 5.73897 4.29935 6.03944C4.65959 6.32488 5.33307 6.46761 6.31981 6.46761H18.9124C21.0582 6.46761 22.6323 6.88826 23.6347 7.72958C24.6527 8.57089 25.1618 9.69765 25.1618 11.1099C25.1618 12.5221 24.6527 13.6563 23.6347 14.5127C22.6323 15.354 21.0582 15.7746 18.9124 15.7746H0.939748Z" fill="white" fill-opacity="0.66"/>
    <path d="M32.6805 8.49577C32.6805 9.87793 33.1425 10.9521 34.0666 11.7183C35.0064 12.4695 36.6431 12.8451 38.9768 12.8451H44.4978C46.8315 12.8451 48.4604 12.4695 49.3845 11.7183C50.3243 10.9521 50.7941 9.87793 50.7941 8.49577V0H54.4122V8.49577C54.4122 13.4986 51.1152 16 44.5213 16H38.9533C32.3594 16 29.0625 13.4986 29.0625 8.49577V0H32.6805V8.49577Z" fill="white" fill-opacity="0.66"/>
    <path d="M59.496 15.7746V0H77.3042C79.6379 0 81.3608 0.480751 82.4728 1.44225C83.6005 2.40376 84.1644 3.6507 84.1644 5.1831C84.1644 6.74554 83.6084 8 82.4963 8.94648C81.3843 9.89296 79.6536 10.3662 77.3042 10.3662H63.114V15.7746H59.496ZM77.2337 3.15493H63.114V7.21127H77.2337C78.4398 7.21127 79.262 7.0385 79.7006 6.69296C80.1548 6.33239 80.3819 5.82911 80.3819 5.1831C80.3819 4.55211 80.1548 4.05634 79.7006 3.69578C79.2464 3.33521 78.4241 3.15493 77.2337 3.15493Z" fill="white" fill-opacity="0.66"/>
    <path d="M112.763 0H116.217V15.7746H112.599V4.8L101.909 15.3014L91.2193 4.8V15.7746H87.6013V0H91.0548L101.909 10.569L112.763 0Z" fill="white" fill-opacity="0.66"/>
    <path d="M144.599 15.7746L142.391 13.093H125.781L123.596 15.7746H119.132L132.171 0H136.024L149.063 15.7746H144.599ZM134.098 2.97465L128.13 10.231H140.042L134.098 2.97465Z" fill="white" fill-opacity="0.66"/>
    <path d="M173.735 15.7746L155.598 4.07887V15.7746H151.98V0H155.41L173.547 11.6958V0H177.165V15.7746H173.735Z" fill="white" fill-opacity="0.66"/>
    <path d="M205.536 15.7746L203.328 13.093H186.718L184.533 15.7746H180.069L193.108 0H196.961L210 15.7746H205.536ZM195.035 2.97465L189.067 10.231H200.978L195.035 2.97465Z" fill="white" fill-opacity="0.66"/>
</svg>
